<mxfile host="drawio-plugin" agent="Mozilla/5.0 (Windows NT 10.0; Win64; x64) AppleWebKit/537.36 (KHTML, like Gecko) Chrome/122.0.0.0 Safari/537.36" modified="2024-10-26T15:26:20.269Z" version="22.1.22" etag="5hJHdc6bo1-6geStXhtS" type="embed">
  <diagram name="Página-1" id="oFq5PPR85VRdoofsXlYv">
    <mxGraphModel dx="554" dy="559" grid="1" gridSize="10" guides="1" tooltips="1" connect="1" arrows="1" fold="1" page="1" pageScale="1" pageWidth="827" pageHeight="1169" math="0" shadow="0">
      <root>
        <mxCell id="0" />
        <mxCell id="1" parent="0" />
        <mxCell id="67" style="edgeStyle=orthogonalEdgeStyle;rounded=0;orthogonalLoop=1;jettySize=auto;html=1;entryX=0.5;entryY=0;entryDx=0;entryDy=0;" edge="1" parent="1" source="GKZXtmYRhP6YwUxVynPK-1" target="GKZXtmYRhP6YwUxVynPK-7">
          <mxGeometry relative="1" as="geometry" />
        </mxCell>
        <mxCell id="GKZXtmYRhP6YwUxVynPK-1" value="start" style="shape=mxgraph.flowchart.terminator;strokeWidth=2;gradientColor=none;gradientDirection=north;fontStyle=0;html=1;" parent="1" vertex="1">
          <mxGeometry x="260" y="10" width="120" height="30" as="geometry" />
        </mxCell>
        <mxCell id="GKZXtmYRhP6YwUxVynPK-5" value="Não" style="text;fontStyle=0;html=1;strokeColor=none;gradientColor=none;fillColor=none;strokeWidth=2;" parent="1" vertex="1">
          <mxGeometry x="394" y="190" width="40" height="26" as="geometry" />
        </mxCell>
        <mxCell id="GKZXtmYRhP6YwUxVynPK-6" value="end" style="shape=mxgraph.flowchart.terminator;strokeWidth=2;gradientColor=none;gradientDirection=north;fontStyle=0;html=1;" parent="1" vertex="1">
          <mxGeometry x="638" y="1100" width="120" height="30" as="geometry" />
        </mxCell>
        <mxCell id="66" style="edgeStyle=orthogonalEdgeStyle;rounded=0;orthogonalLoop=1;jettySize=auto;html=1;" edge="1" parent="1" source="GKZXtmYRhP6YwUxVynPK-7" target="GKZXtmYRhP6YwUxVynPK-8">
          <mxGeometry relative="1" as="geometry" />
        </mxCell>
        <mxCell id="GKZXtmYRhP6YwUxVynPK-7" value="Visualizar AMAPs" style="rounded=1;whiteSpace=wrap;html=1;" parent="1" vertex="1">
          <mxGeometry x="260" y="60" width="120" height="60" as="geometry" />
        </mxCell>
        <mxCell id="GKZXtmYRhP6YwUxVynPK-8" value="Inscrito na AMAP&lt;div&gt;selecionada ?&lt;/div&gt;" style="shape=mxgraph.flowchart.decision;strokeWidth=2;gradientColor=none;gradientDirection=north;fontStyle=0;html=1;" parent="1" vertex="1">
          <mxGeometry x="255" y="170" width="129" height="87" as="geometry" />
        </mxCell>
        <mxCell id="GKZXtmYRhP6YwUxVynPK-9" style="edgeStyle=orthogonalEdgeStyle;rounded=0;orthogonalLoop=1;jettySize=auto;html=1;exitX=0.5;exitY=0;exitDx=0;exitDy=0;exitPerimeter=0;entryX=1;entryY=0.5;entryDx=0;entryDy=0;" parent="1" source="GKZXtmYRhP6YwUxVynPK-11" target="GKZXtmYRhP6YwUxVynPK-7" edge="1">
          <mxGeometry relative="1" as="geometry" />
        </mxCell>
        <mxCell id="GKZXtmYRhP6YwUxVynPK-10" style="edgeStyle=orthogonalEdgeStyle;rounded=0;orthogonalLoop=1;jettySize=auto;html=1;entryX=0.5;entryY=0;entryDx=0;entryDy=0;" parent="1" source="GKZXtmYRhP6YwUxVynPK-11" target="GKZXtmYRhP6YwUxVynPK-40" edge="1">
          <mxGeometry relative="1" as="geometry">
            <mxPoint x="674.5" y="334" as="targetPoint" />
          </mxGeometry>
        </mxCell>
        <mxCell id="GKZXtmYRhP6YwUxVynPK-11" value="AMAP disponível ?" style="shape=mxgraph.flowchart.decision;strokeWidth=2;gradientColor=none;gradientDirection=north;fontStyle=0;html=1;" parent="1" vertex="1">
          <mxGeometry x="633.5" y="170" width="129" height="87" as="geometry" />
        </mxCell>
        <mxCell id="GKZXtmYRhP6YwUxVynPK-12" style="edgeStyle=orthogonalEdgeStyle;rounded=0;orthogonalLoop=1;jettySize=auto;html=1;exitX=1;exitY=0.5;exitDx=0;exitDy=0;exitPerimeter=0;entryX=0;entryY=0.5;entryDx=0;entryDy=0;entryPerimeter=0;" parent="1" source="GKZXtmYRhP6YwUxVynPK-8" target="GKZXtmYRhP6YwUxVynPK-11" edge="1">
          <mxGeometry relative="1" as="geometry" />
        </mxCell>
        <mxCell id="GKZXtmYRhP6YwUxVynPK-13" value="Sim" style="text;fontStyle=0;html=1;strokeColor=none;gradientColor=none;fillColor=none;strokeWidth=2;" parent="1" vertex="1">
          <mxGeometry x="330" y="257" width="40" height="26" as="geometry" />
        </mxCell>
        <mxCell id="GKZXtmYRhP6YwUxVynPK-14" value="Não" style="text;fontStyle=0;html=1;strokeColor=none;gradientColor=none;fillColor=none;strokeWidth=2;" parent="1" vertex="1">
          <mxGeometry x="678" y="70" width="40" height="26" as="geometry" />
        </mxCell>
        <mxCell id="GKZXtmYRhP6YwUxVynPK-15" value="Sim" style="text;fontStyle=0;html=1;strokeColor=none;gradientColor=none;fillColor=none;strokeWidth=2;" parent="1" vertex="1">
          <mxGeometry x="676" y="261" width="40" height="26" as="geometry" />
        </mxCell>
        <mxCell id="2" style="edgeStyle=orthogonalEdgeStyle;rounded=0;orthogonalLoop=1;jettySize=auto;html=1;" edge="1" parent="1" source="GKZXtmYRhP6YwUxVynPK-36" target="3">
          <mxGeometry relative="1" as="geometry">
            <mxPoint x="319.5" y="480" as="targetPoint" />
          </mxGeometry>
        </mxCell>
        <mxCell id="63" style="edgeStyle=orthogonalEdgeStyle;rounded=0;orthogonalLoop=1;jettySize=auto;html=1;entryX=0;entryY=0.5;entryDx=0;entryDy=0;" edge="1" parent="1" source="GKZXtmYRhP6YwUxVynPK-36" target="GKZXtmYRhP6YwUxVynPK-7">
          <mxGeometry relative="1" as="geometry">
            <mxPoint x="110" y="100" as="targetPoint" />
            <Array as="points">
              <mxPoint x="240" y="334" />
              <mxPoint x="240" y="90" />
            </Array>
          </mxGeometry>
        </mxCell>
        <mxCell id="GKZXtmYRhP6YwUxVynPK-36" value="Desistir da AMAP ?" style="shape=mxgraph.flowchart.decision;strokeWidth=2;gradientColor=none;gradientDirection=north;fontStyle=0;html=1;" parent="1" vertex="1">
          <mxGeometry x="255" y="290" width="129" height="87" as="geometry" />
        </mxCell>
        <mxCell id="GKZXtmYRhP6YwUxVynPK-39" value="Não" style="text;fontStyle=0;html=1;strokeColor=none;gradientColor=none;fillColor=none;strokeWidth=2;" parent="1" vertex="1">
          <mxGeometry x="213" y="214" width="40" height="26" as="geometry" />
        </mxCell>
        <mxCell id="GKZXtmYRhP6YwUxVynPK-40" value="Inscrever na AMAP" style="rounded=1;whiteSpace=wrap;html=1;" parent="1" vertex="1">
          <mxGeometry x="638" y="645" width="120" height="60" as="geometry" />
        </mxCell>
        <mxCell id="GKZXtmYRhP6YwUxVynPK-45" value="" style="edgeStyle=orthogonalEdgeStyle;rounded=0;orthogonalLoop=1;jettySize=auto;html=1;" parent="1" target="GKZXtmYRhP6YwUxVynPK-6" edge="1">
          <mxGeometry relative="1" as="geometry">
            <mxPoint x="365.5" y="1115" as="sourcePoint" />
          </mxGeometry>
        </mxCell>
        <mxCell id="GKZXtmYRhP6YwUxVynPK-41" value="Desistir da AMAP" style="rounded=1;whiteSpace=wrap;html=1;" parent="1" vertex="1">
          <mxGeometry x="245.5" y="1086" width="120" height="60" as="geometry" />
        </mxCell>
        <mxCell id="GKZXtmYRhP6YwUxVynPK-43" value="Sim" style="text;fontStyle=0;html=1;strokeColor=none;gradientColor=none;fillColor=none;strokeWidth=2;" parent="1" vertex="1">
          <mxGeometry x="330" y="377" width="40" height="26" as="geometry" />
        </mxCell>
        <mxCell id="GKZXtmYRhP6YwUxVynPK-44" style="edgeStyle=orthogonalEdgeStyle;rounded=0;orthogonalLoop=1;jettySize=auto;html=1;entryX=0.5;entryY=0;entryDx=0;entryDy=0;entryPerimeter=0;" parent="1" source="GKZXtmYRhP6YwUxVynPK-40" target="GKZXtmYRhP6YwUxVynPK-6" edge="1">
          <mxGeometry relative="1" as="geometry" />
        </mxCell>
        <mxCell id="GKZXtmYRhP6YwUxVynPK-46" value="Confirmação de&lt;div&gt;inscrição enviada&lt;/div&gt;" style="text;fontStyle=0;html=1;strokeColor=none;gradientColor=none;fillColor=none;strokeWidth=2;" parent="1" vertex="1">
          <mxGeometry x="591" y="777" width="40" height="26" as="geometry" />
        </mxCell>
        <mxCell id="GKZXtmYRhP6YwUxVynPK-47" value="Confirmação&amp;nbsp;&lt;span style=&quot;background-color: initial;&quot;&gt;de desistência&amp;nbsp;&lt;/span&gt;&lt;span style=&quot;background-color: initial;&quot;&gt;enviada&lt;/span&gt;&lt;span style=&quot;background-color: initial;&quot;&gt;&lt;br&gt;&lt;/span&gt;" style="text;fontStyle=0;html=1;strokeColor=none;gradientColor=none;fillColor=none;strokeWidth=2;" parent="1" vertex="1">
          <mxGeometry x="413" y="1085" width="200" height="40" as="geometry" />
        </mxCell>
        <mxCell id="5" style="edgeStyle=orthogonalEdgeStyle;rounded=0;orthogonalLoop=1;jettySize=auto;html=1;entryX=0.626;entryY=0.04;entryDx=0;entryDy=0;entryPerimeter=0;" edge="1" parent="1" source="3" target="GKZXtmYRhP6YwUxVynPK-41">
          <mxGeometry relative="1" as="geometry">
            <mxPoint x="320.25" y="557" as="targetPoint" />
          </mxGeometry>
        </mxCell>
        <mxCell id="33" style="edgeStyle=orthogonalEdgeStyle;rounded=0;orthogonalLoop=1;jettySize=auto;html=1;" edge="1" parent="1" source="3">
          <mxGeometry relative="1" as="geometry">
            <mxPoint x="120" y="466" as="targetPoint" />
          </mxGeometry>
        </mxCell>
        <mxCell id="3" value="Tem Encomendas pendentes?" style="strokeWidth=2;html=1;shape=mxgraph.flowchart.decision;whiteSpace=wrap;" vertex="1" parent="1">
          <mxGeometry x="260" y="415" width="120.5" height="102" as="geometry" />
        </mxCell>
        <mxCell id="32" value="Sim" style="text;html=1;align=center;verticalAlign=middle;resizable=0;points=[];autosize=1;strokeColor=none;fillColor=none;" vertex="1" parent="1">
          <mxGeometry x="325.5" y="577" width="40" height="30" as="geometry" />
        </mxCell>
        <mxCell id="35" value="Notificar&lt;br&gt;Consumidores&lt;br&gt;&amp;amp;&lt;br&gt;AMAP" style="rounded=1;whiteSpace=wrap;html=1;absoluteArcSize=1;arcSize=14;strokeWidth=2;" vertex="1" parent="1">
          <mxGeometry x="20" y="415" width="100" height="100" as="geometry" />
        </mxCell>
        <mxCell id="38" style="edgeStyle=orthogonalEdgeStyle;rounded=0;orthogonalLoop=1;jettySize=auto;html=1;" edge="1" parent="1" source="36">
          <mxGeometry relative="1" as="geometry">
            <mxPoint x="40" y="747" as="targetPoint" />
          </mxGeometry>
        </mxCell>
        <mxCell id="39" style="edgeStyle=orthogonalEdgeStyle;rounded=0;orthogonalLoop=1;jettySize=auto;html=1;" edge="1" parent="1" source="36">
          <mxGeometry relative="1" as="geometry">
            <mxPoint x="250" y="747" as="targetPoint" />
          </mxGeometry>
        </mxCell>
        <mxCell id="36" value="Existe Produtor Subsituto?" style="strokeWidth=2;html=1;shape=mxgraph.flowchart.decision;whiteSpace=wrap;" vertex="1" parent="1">
          <mxGeometry x="95" y="577" width="100" height="100" as="geometry" />
        </mxCell>
        <mxCell id="37" style="edgeStyle=orthogonalEdgeStyle;rounded=0;orthogonalLoop=1;jettySize=auto;html=1;entryX=0.5;entryY=0;entryDx=0;entryDy=0;entryPerimeter=0;" edge="1" parent="1" source="35" target="36">
          <mxGeometry relative="1" as="geometry" />
        </mxCell>
        <mxCell id="40" value="Não" style="text;html=1;align=center;verticalAlign=middle;resizable=0;points=[];autosize=1;strokeColor=none;fillColor=none;" vertex="1" parent="1">
          <mxGeometry x="45" y="675" width="50" height="30" as="geometry" />
        </mxCell>
        <mxCell id="42" value="Sim" style="text;html=1;align=center;verticalAlign=middle;resizable=0;points=[];autosize=1;strokeColor=none;fillColor=none;" vertex="1" parent="1">
          <mxGeometry x="200" y="675" width="40" height="30" as="geometry" />
        </mxCell>
        <mxCell id="48" style="edgeStyle=orthogonalEdgeStyle;rounded=0;orthogonalLoop=1;jettySize=auto;html=1;entryX=0.5;entryY=0;entryDx=0;entryDy=0;" edge="1" parent="1" source="43" target="47">
          <mxGeometry relative="1" as="geometry" />
        </mxCell>
        <mxCell id="43" value="Transferir Encomendas" style="rounded=1;whiteSpace=wrap;html=1;absoluteArcSize=1;arcSize=14;strokeWidth=2;" vertex="1" parent="1">
          <mxGeometry x="200" y="747" width="100" height="100" as="geometry" />
        </mxCell>
        <mxCell id="44" value="Cancelar Encomendas" style="rounded=1;whiteSpace=wrap;html=1;absoluteArcSize=1;arcSize=14;strokeWidth=2;" vertex="1" parent="1">
          <mxGeometry x="10" y="747" width="100" height="100" as="geometry" />
        </mxCell>
        <mxCell id="50" style="edgeStyle=orthogonalEdgeStyle;rounded=0;orthogonalLoop=1;jettySize=auto;html=1;entryX=0;entryY=0.5;entryDx=0;entryDy=0;" edge="1" parent="1" source="46" target="GKZXtmYRhP6YwUxVynPK-41">
          <mxGeometry relative="1" as="geometry" />
        </mxCell>
        <mxCell id="53" style="edgeStyle=orthogonalEdgeStyle;rounded=0;orthogonalLoop=1;jettySize=auto;html=1;entryX=0.5;entryY=0;entryDx=0;entryDy=0;" edge="1" parent="1" source="46" target="52">
          <mxGeometry relative="1" as="geometry" />
        </mxCell>
        <mxCell id="46" value="Necessario Reembolso" style="strokeWidth=2;html=1;shape=mxgraph.flowchart.decision;whiteSpace=wrap;" vertex="1" parent="1">
          <mxGeometry x="10" y="897" width="100" height="100" as="geometry" />
        </mxCell>
        <mxCell id="49" style="edgeStyle=orthogonalEdgeStyle;rounded=0;orthogonalLoop=1;jettySize=auto;html=1;entryX=0.25;entryY=0;entryDx=0;entryDy=0;" edge="1" parent="1" source="47" target="GKZXtmYRhP6YwUxVynPK-41">
          <mxGeometry relative="1" as="geometry" />
        </mxCell>
        <mxCell id="47" value="Notificar Consumidores" style="rounded=1;whiteSpace=wrap;html=1;absoluteArcSize=1;arcSize=14;strokeWidth=2;" vertex="1" parent="1">
          <mxGeometry x="200" y="887" width="100" height="100" as="geometry" />
        </mxCell>
        <mxCell id="51" value="Não" style="text;html=1;align=center;verticalAlign=middle;resizable=0;points=[];autosize=1;strokeColor=none;fillColor=none;" vertex="1" parent="1">
          <mxGeometry x="120" y="917" width="50" height="30" as="geometry" />
        </mxCell>
        <mxCell id="64" style="edgeStyle=orthogonalEdgeStyle;rounded=0;orthogonalLoop=1;jettySize=auto;html=1;entryX=0;entryY=0.5;entryDx=0;entryDy=0;" edge="1" parent="1" source="52" target="GKZXtmYRhP6YwUxVynPK-41">
          <mxGeometry relative="1" as="geometry" />
        </mxCell>
        <mxCell id="52" value="Reembolsar Consumidores" style="rounded=1;whiteSpace=wrap;html=1;absoluteArcSize=1;arcSize=14;strokeWidth=2;" vertex="1" parent="1">
          <mxGeometry x="10" y="1025" width="100" height="100" as="geometry" />
        </mxCell>
        <mxCell id="57" value="Sim" style="text;html=1;align=center;verticalAlign=middle;resizable=0;points=[];autosize=1;strokeColor=none;fillColor=none;" vertex="1" parent="1">
          <mxGeometry x="60" y="995" width="40" height="30" as="geometry" />
        </mxCell>
        <mxCell id="61" style="edgeStyle=orthogonalEdgeStyle;rounded=0;orthogonalLoop=1;jettySize=auto;html=1;entryX=0.5;entryY=0;entryDx=0;entryDy=0;entryPerimeter=0;" edge="1" parent="1" source="44" target="46">
          <mxGeometry relative="1" as="geometry" />
        </mxCell>
        <mxCell id="69" style="edgeStyle=orthogonalEdgeStyle;rounded=0;orthogonalLoop=1;jettySize=auto;html=1;entryX=0.5;entryY=0;entryDx=0;entryDy=0;entryPerimeter=0;" edge="1" parent="1" source="GKZXtmYRhP6YwUxVynPK-8" target="GKZXtmYRhP6YwUxVynPK-36">
          <mxGeometry relative="1" as="geometry" />
        </mxCell>
      </root>
    </mxGraphModel>
  </diagram>
</mxfile>
